<svg id="visual" viewBox="0 0 900 600" width="900" height="600" xmlns="http://www.w3.org/2000/svg" xmlns:xlink="http://www.w3.org/1999/xlink" version="1.1"><rect x="0" y="0" width="900" height="600" fill="#f9dbdb"></rect><path d="M0 409L21.5 407.8C43 406.7 86 404.3 128.8 398C171.7 391.7 214.3 381.3 257.2 379.3C300 377.3 343 383.7 385.8 395C428.7 406.3 471.3 422.7 514.2 416C557 409.3 600 379.7 642.8 376.5C685.7 373.3 728.3 396.7 771.2 397.7C814 398.7 857 377.3 878.5 366.7L900 356L900 601L878.5 601C857 601 814 601 771.2 601C728.3 601 685.7 601 642.8 601C600 601 557 601 514.2 601C471.3 601 428.7 601 385.8 601C343 601 300 601 257.2 601C214.3 601 171.7 601 128.8 601C86 601 43 601 21.5 601L0 601Z" fill="#ffc0bc"></path><path d="M0 409L21.5 412.7C43 416.3 86 423.7 128.8 434.2C171.7 444.7 214.3 458.3 257.2 454.5C300 450.7 343 429.3 385.8 422.3C428.7 415.3 471.3 422.7 514.2 424C557 425.3 600 420.7 642.8 428.8C685.7 437 728.3 458 771.2 465C814 472 857 465 878.5 461.5L900 458L900 601L878.5 601C857 601 814 601 771.2 601C728.3 601 685.7 601 642.8 601C600 601 557 601 514.2 601C471.3 601 428.7 601 385.8 601C343 601 300 601 257.2 601C214.3 601 171.7 601 128.8 601C86 601 43 601 21.5 601L0 601Z" fill="#ee8da1"></path><path d="M0 460L21.5 458.3C43 456.7 86 453.3 128.8 458.2C171.7 463 214.3 476 257.2 476.7C300 477.3 343 465.7 385.8 467.3C428.7 469 471.3 484 514.2 482.3C557 480.7 600 462.3 642.8 457C685.7 451.7 728.3 459.3 771.2 468.2C814 477 857 487 878.5 492L900 497L900 601L878.5 601C857 601 814 601 771.2 601C728.3 601 685.7 601 642.8 601C600 601 557 601 514.2 601C471.3 601 428.7 601 385.8 601C343 601 300 601 257.2 601C214.3 601 171.7 601 128.8 601C86 601 43 601 21.5 601L0 601Z" fill="#d25b98"></path><path d="M0 490L21.5 498C43 506 86 522 128.8 524.3C171.7 526.7 214.3 515.3 257.2 515.2C300 515 343 526 385.8 522.5C428.7 519 471.3 501 514.2 491.8C557 482.7 600 482.3 642.8 488.2C685.7 494 728.3 506 771.2 510.2C814 514.3 857 510.7 878.5 508.8L900 507L900 601L878.5 601C857 601 814 601 771.2 601C728.3 601 685.7 601 642.8 601C600 601 557 601 514.2 601C471.3 601 428.7 601 385.8 601C343 601 300 601 257.2 601C214.3 601 171.7 601 128.8 601C86 601 43 601 21.5 601L0 601Z" fill="#a62e9b"></path><path d="M0 563L21.5 558.8C43 554.7 86 546.3 128.8 546.3C171.7 546.3 214.3 554.7 257.2 553.7C300 552.7 343 542.3 385.8 542.3C428.7 542.3 471.3 552.7 514.2 555.2C557 557.7 600 552.3 642.8 548.5C685.7 544.7 728.3 542.3 771.2 542.8C814 543.3 857 546.7 878.5 548.3L900 550L900 601L878.5 601C857 601 814 601 771.2 601C728.3 601 685.7 601 642.8 601C600 601 557 601 514.2 601C471.3 601 428.7 601 385.8 601C343 601 300 601 257.2 601C214.3 601 171.7 601 128.8 601C86 601 43 601 21.5 601L0 601Z" fill="#5b15a5"></path></svg>