<svg id="visual" viewBox="0 0 900 600" width="900" height="600" xmlns="http://www.w3.org/2000/svg" xmlns:xlink="http://www.w3.org/1999/xlink" version="1.1"><rect x="0" y="0" width="900" height="600" fill="#F7CACA"></rect><path d="M0 200L21.5 206.2C43 212.3 86 224.7 128.8 222.7C171.7 220.7 214.3 204.3 257.2 193.3C300 182.3 343 176.7 385.8 171.5C428.7 166.3 471.3 161.7 514.2 167C557 172.3 600 187.7 642.8 188.3C685.7 189 728.3 175 771.2 182.5C814 190 857 219 878.5 233.5L900 248L900 0L878.5 0C857 0 814 0 771.2 0C728.3 0 685.7 0 642.8 0C600 0 557 0 514.2 0C471.3 0 428.7 0 385.8 0C343 0 300 0 257.2 0C214.3 0 171.7 0 128.8 0C86 0 43 0 21.5 0L0 0Z" fill="#fa7268"></path><path d="M0 169L21.5 162C43 155 86 141 128.8 141.8C171.7 142.7 214.3 158.3 257.2 169.3C300 180.3 343 186.7 385.8 186.7C428.7 186.7 471.3 180.3 514.2 176.3C557 172.3 600 170.7 642.8 164.8C685.7 159 728.3 149 771.2 151.5C814 154 857 169 878.5 176.5L900 184L900 0L878.5 0C857 0 814 0 771.2 0C728.3 0 685.7 0 642.8 0C600 0 557 0 514.2 0C471.3 0 428.7 0 385.8 0C343 0 300 0 257.2 0C214.3 0 171.7 0 128.8 0C86 0 43 0 21.5 0L0 0Z" fill="#ef5f67"></path><path d="M0 93L21.5 95.7C43 98.3 86 103.7 128.8 109.3C171.7 115 214.3 121 257.2 121.5C300 122 343 117 385.8 117C428.7 117 471.3 122 514.2 127.5C557 133 600 139 642.8 132.8C685.7 126.7 728.3 108.3 771.2 106.8C814 105.3 857 120.7 878.5 128.3L900 136L900 0L878.5 0C857 0 814 0 771.2 0C728.3 0 685.7 0 642.8 0C600 0 557 0 514.2 0C471.3 0 428.7 0 385.8 0C343 0 300 0 257.2 0C214.3 0 171.7 0 128.8 0C86 0 43 0 21.5 0L0 0Z" fill="#e34c67"></path><path d="M0 118L21.5 112.7C43 107.3 86 96.7 128.8 95.2C171.7 93.7 214.3 101.3 257.2 103.3C300 105.3 343 101.7 385.8 98.2C428.7 94.7 471.3 91.3 514.2 87.2C557 83 600 78 642.8 75.3C685.7 72.7 728.3 72.3 771.2 79C814 85.7 857 99.3 878.5 106.2L900 113L900 0L878.5 0C857 0 814 0 771.2 0C728.3 0 685.7 0 642.8 0C600 0 557 0 514.2 0C471.3 0 428.7 0 385.8 0C343 0 300 0 257.2 0C214.3 0 171.7 0 128.8 0C86 0 43 0 21.5 0L0 0Z" fill="#d53867"></path><path d="M0 52L21.5 48.3C43 44.7 86 37.3 128.8 40C171.7 42.7 214.3 55.3 257.2 59.7C300 64 343 60 385.8 60.5C428.7 61 471.3 66 514.2 65C557 64 600 57 642.8 55C685.7 53 728.3 56 771.2 52.7C814 49.3 857 39.7 878.5 34.8L900 30L900 0L878.5 0C857 0 814 0 771.2 0C728.3 0 685.7 0 642.8 0C600 0 557 0 514.2 0C471.3 0 428.7 0 385.8 0C343 0 300 0 257.2 0C214.3 0 171.7 0 128.8 0C86 0 43 0 21.5 0L0 0Z" fill="#c62368"></path></svg>