<svg id="visual" viewBox="0 0 900 600" width="900" height="600" xmlns="http://www.w3.org/2000/svg" xmlns:xlink="http://www.w3.org/1999/xlink" version="1.1"><rect x="0" y="0" width="900" height="600" fill="#F7CACA"></rect><path d="M600 600L590.8 585.7C581.7 571.3 563.3 542.7 566.3 514.2C569.3 485.7 593.7 457.3 610 428.8C626.3 400.3 634.7 371.7 642.2 343C649.7 314.3 656.3 285.7 648.3 257C640.3 228.3 617.7 199.7 616.8 171.2C616 142.7 637 114.3 625.7 85.8C614.3 57.3 570.7 28.7 548.8 14.3L527 0L900 0L900 14.3C900 28.7 900 57.3 900 85.8C900 114.3 900 142.7 900 171.2C900 199.7 900 228.3 900 257C900 285.7 900 314.3 900 343C900 371.7 900 400.3 900 428.8C900 457.3 900 485.7 900 514.2C900 542.7 900 571.3 900 585.7L900 600Z" fill="#fa7268"></path><path d="M646 600L656.5 585.7C667 571.3 688 542.7 686.7 514.2C685.3 485.7 661.7 457.3 645 428.8C628.3 400.3 618.7 371.7 618.7 343C618.7 314.3 628.3 285.7 634.5 257C640.7 228.3 643.3 199.7 652.2 171.2C661 142.7 676 114.3 672.3 85.8C668.7 57.3 646.3 28.7 635.2 14.3L624 0L900 0L900 14.3C900 28.7 900 57.3 900 85.8C900 114.3 900 142.7 900 171.2C900 199.7 900 228.3 900 257C900 285.7 900 314.3 900 343C900 371.7 900 400.3 900 428.8C900 457.3 900 485.7 900 514.2C900 542.7 900 571.3 900 585.7L900 600Z" fill="#ef5f67"></path><path d="M759 600L755.3 585.7C751.7 571.3 744.3 542.7 736.2 514.2C728 485.7 719 457.3 718.2 428.8C717.3 400.3 724.7 371.7 724.5 343C724.3 314.3 716.7 285.7 708.3 257C700 228.3 691 199.7 700.3 171.2C709.7 142.7 737.3 114.3 739.5 85.8C741.7 57.3 718.3 28.7 706.7 14.3L695 0L900 0L900 14.3C900 28.7 900 57.3 900 85.8C900 114.3 900 142.7 900 171.2C900 199.7 900 228.3 900 257C900 285.7 900 314.3 900 343C900 371.7 900 400.3 900 428.8C900 457.3 900 485.7 900 514.2C900 542.7 900 571.3 900 585.7L900 600Z" fill="#e34c67"></path><path d="M723 600L731 585.7C739 571.3 755 542.7 757.2 514.2C759.3 485.7 747.7 457.3 744.5 428.8C741.3 400.3 746.7 371.7 752 343C757.3 314.3 762.7 285.7 769 257C775.3 228.3 782.7 199.7 786.7 171.2C790.7 142.7 791.3 114.3 781.2 85.8C771 57.3 750 28.7 739.5 14.3L729 0L900 0L900 14.3C900 28.7 900 57.3 900 85.8C900 114.3 900 142.7 900 171.2C900 199.7 900 228.3 900 257C900 285.7 900 314.3 900 343C900 371.7 900 400.3 900 428.8C900 457.3 900 485.7 900 514.2C900 542.7 900 571.3 900 585.7L900 600Z" fill="#d53867"></path><path d="M822 600L827.5 585.7C833 571.3 844 542.7 839.8 514.2C835.7 485.7 816.3 457.3 809.7 428.8C803 400.3 809 371.7 808.3 343C807.7 314.3 800.3 285.7 801.8 257C803.3 228.3 813.7 199.7 816.5 171.2C819.3 142.7 814.7 114.3 819.8 85.8C825 57.3 840 28.7 847.5 14.3L855 0L900 0L900 14.3C900 28.7 900 57.3 900 85.8C900 114.3 900 142.7 900 171.2C900 199.7 900 228.3 900 257C900 285.7 900 314.3 900 343C900 371.7 900 400.3 900 428.8C900 457.3 900 485.7 900 514.2C900 542.7 900 571.3 900 585.7L900 600Z" fill="#c62368"></path></svg>