<svg id="visual" viewBox="0 0 900 600" width="900" height="600" xmlns="http://www.w3.org/2000/svg" xmlns:xlink="http://www.w3.org/1999/xlink" version="1.1"><rect x="0" y="0" width="900" height="600" fill="#F7CACA"></rect><path d="M302 0L311.2 14.3C320.3 28.7 338.7 57.3 335.7 85.8C332.7 114.3 308.3 142.7 292 171.2C275.7 199.7 267.3 228.3 259.8 257C252.3 285.7 245.7 314.3 253.7 343C261.7 371.7 284.3 400.3 285.2 428.8C286 457.3 265 485.7 276.3 514.2C287.7 542.7 331.3 571.3 353.2 585.7L375 600L0 600L0 585.7C0 571.3 0 542.7 0 514.2C0 485.7 0 457.3 0 428.8C0 400.3 0 371.7 0 343C0 314.3 0 285.7 0 257C0 228.3 0 199.7 0 171.2C0 142.7 0 114.3 0 85.8C0 57.3 0 28.7 0 14.3L0 0Z" fill="#fa7268"></path><path d="M256 0L245.5 14.3C235 28.7 214 57.3 215.3 85.8C216.7 114.3 240.3 142.7 257 171.2C273.7 199.7 283.3 228.3 283.3 257C283.3 285.7 273.7 314.3 267.5 343C261.3 371.7 258.7 400.3 249.8 428.8C241 457.3 226 485.7 229.7 514.2C233.3 542.7 255.7 571.3 266.8 585.7L278 600L0 600L0 585.7C0 571.3 0 542.7 0 514.2C0 485.7 0 457.3 0 428.8C0 400.3 0 371.7 0 343C0 314.3 0 285.7 0 257C0 228.3 0 199.7 0 171.2C0 142.7 0 114.3 0 85.8C0 57.3 0 28.7 0 14.3L0 0Z" fill="#ef5f67"></path><path d="M143 0L146.7 14.3C150.3 28.7 157.7 57.3 165.8 85.8C174 114.3 183 142.7 183.8 171.2C184.7 199.7 177.3 228.3 177.5 257C177.7 285.7 185.3 314.3 193.7 343C202 371.7 211 400.3 201.7 428.8C192.3 457.3 164.7 485.7 162.5 514.2C160.3 542.7 183.7 571.3 195.3 585.7L207 600L0 600L0 585.7C0 571.3 0 542.7 0 514.2C0 485.7 0 457.3 0 428.8C0 400.3 0 371.7 0 343C0 314.3 0 285.7 0 257C0 228.3 0 199.7 0 171.2C0 142.7 0 114.3 0 85.8C0 57.3 0 28.7 0 14.3L0 0Z" fill="#e34c67"></path><path d="M179 0L171 14.3C163 28.7 147 57.3 144.8 85.8C142.7 114.3 154.3 142.7 157.5 171.2C160.7 199.7 155.3 228.3 150 257C144.7 285.7 139.3 314.3 133 343C126.7 371.7 119.3 400.3 115.3 428.8C111.3 457.3 110.7 485.7 120.8 514.2C131 542.7 152 571.3 162.5 585.7L173 600L0 600L0 585.7C0 571.3 0 542.7 0 514.2C0 485.7 0 457.3 0 428.8C0 400.3 0 371.7 0 343C0 314.3 0 285.7 0 257C0 228.3 0 199.7 0 171.2C0 142.7 0 114.3 0 85.8C0 57.3 0 28.7 0 14.3L0 0Z" fill="#d53867"></path><path d="M80 0L74.5 14.3C69 28.7 58 57.3 62.2 85.8C66.3 114.3 85.7 142.7 92.3 171.2C99 199.7 93 228.3 93.7 257C94.3 285.7 101.7 314.3 100.2 343C98.7 371.7 88.3 400.3 85.5 428.8C82.7 457.3 87.3 485.7 82.2 514.2C77 542.7 62 571.3 54.5 585.7L47 600L0 600L0 585.7C0 571.3 0 542.7 0 514.2C0 485.7 0 457.3 0 428.8C0 400.3 0 371.7 0 343C0 314.3 0 285.7 0 257C0 228.3 0 199.7 0 171.2C0 142.7 0 114.3 0 85.8C0 57.3 0 28.7 0 14.3L0 0Z" fill="#c62368"></path></svg>